# xmcd
#
# Track frame offsets:
#	150
#	11359
#	23979
#	36355
#	49502
#	64827
#	73869
#	84585
#	94930
#	106575
#	118160
#	129923
#	139744
#	150514
#	159738
#	170268
#	182454
#	195419
#	206763
#	217667
#
# Disc length: 3051 seconds
#
# Revision: 4
# Processed by: cddbd v1.5.2PL0 Copyright (c) Steve Scherf et al.
# Submitted via: EZCDAudioConverter 7.0.6.1
#
DISCID=060be914
DTITLE=Roger Nichols and The Small Circle Of Friends - Roger Nichols and The Small
DTITLE=Circle Of Friends (1967)
DYEAR=1967
DGENRE=
TTITLE0=Don't Take Your Time
TTITLE1=With A Little Help From My Friends
TTITLE2=Don't Go Breaking My Heart
TTITLE3=I Can See Only You
TTITLE4=Snow Queen
TTITLE5=Love So Fine
TTITLE6=Kinda Wasted Without You
TTITLE7=Just Beyond Your Smile
TTITLE8=I'll Be Back
TTITLE9=Cocoanut Grove
TTITLE10=Didn't Want To Have To Do It
TTITLE11=Can I Go
TTITLE12=Our Day Will Come
TTITLE13=Love Song, Love Song
TTITLE14=Just Beyond Your Smile [Mono 45]
TTITLE15=I'll Be Back [Mono 45]
TTITLE16=Let's Ride
TTITLE17=The Drifter
TTITLE18=Trust
TTITLE19=St. Bernie The Sno-Dog
EXTD=
EXTT0=
EXTT1=
EXTT2=
EXTT3=
EXTT4=
EXTT5=
EXTT6=
EXTT7=
EXTT8=
EXTT9=
EXTT10=
EXTT11=
EXTT12=
EXTT13=
EXTT14=
EXTT15=
EXTT16=
EXTT17=
EXTT18=
EXTT19=
PLAYORDER=
